 <svg version="1.0" xmlns="http://www.w3.org/2000/svg" width="700.000000pt" height="700.000000pt" viewBox="0 0 700.000000 700.000000" preserveAspectRatio="xMidYMid meet">
<metadata>
Created by potrace 1.12, written by Peter Selinger 2001-2015
</metadata>
<g transform="translate(0.000000,700.000000) scale(0.100000,-0.100000)" fill="#000000" stroke="none">
<path d="M3105 6689 c-119 -11 -174 -24 -267 -59 -42 -16 -119 -37 -170 -45
-132 -23 -192 -41 -273 -85 -38 -21 -116 -52 -173 -69 -78 -22 -116 -39 -156
-70 -29 -23 -78 -50 -108 -60 -76 -26 -96 -38 -145 -82 -23 -21 -68 -51 -101
-68 -32 -16 -83 -51 -113 -76 -30 -26 -71 -55 -91 -66 -34 -17 -140 -113 -213
-191 -16 -18 -45 -46 -64 -63 -19 -16 -51 -47 -70 -68 -20 -20 -61 -63 -92
-95 -31 -32 -66 -77 -78 -100 -12 -23 -41 -64 -66 -92 -25 -28 -60 -81 -79
-118 -19 -37 -50 -82 -70 -101 -22 -22 -45 -60 -62 -103 -14 -38 -41 -90 -59
-116 -54 -75 -71 -112 -94 -197 -12 -44 -40 -112 -61 -150 -44 -79 -64 -147
-80 -268 -6 -45 -29 -134 -50 -197 -21 -63 -43 -149 -49 -190 -23 -157 -31
-391 -21 -600 14 -281 24 -348 70 -484 24 -72 45 -162 55 -233 17 -124 33
-172 77 -243 27 -42 41 -81 82 -230 9 -31 33 -79 57 -110 23 -30 57 -89 76
-130 19 -41 48 -88 64 -104 17 -17 48 -65 70 -108 21 -42 63 -105 94 -139 30
-34 55 -66 55 -71 0 -5 28 -39 63 -76 35 -37 72 -82 82 -100 11 -18 38 -44 60
-59 22 -15 63 -49 91 -77 93 -92 188 -174 249 -217 33 -22 74 -54 90 -69 17
-16 59 -42 95 -59 36 -18 83 -49 105 -71 22 -21 76 -55 120 -75 44 -20 103
-51 130 -70 28 -19 94 -47 150 -64 55 -17 127 -46 159 -66 76 -45 116 -59 256
-84 63 -11 154 -34 203 -50 198 -67 515 -94 847 -72 217 15 328 32 449 71 52
16 152 41 221 55 138 27 153 32 250 87 36 20 99 46 140 58 85 25 126 44 156
72 12 10 64 37 115 59 60 26 109 55 134 79 22 22 70 53 107 69 37 17 90 51
118 76 29 25 76 62 105 82 30 19 61 46 70 59 8 13 40 42 70 64 31 23 74 61 96
85 23 25 56 54 73 64 17 11 40 35 50 53 11 18 43 58 72 88 28 30 63 73 76 95
14 22 46 65 72 95 26 30 65 89 86 130 21 41 50 86 65 100 15 14 44 62 65 107
21 45 54 103 74 129 20 26 43 73 51 103 38 139 49 170 85 226 47 75 56 103 75
239 8 62 32 163 56 234 33 102 43 152 55 276 26 263 16 722 -17 851 -6 22 -24
82 -40 134 -16 52 -39 146 -50 210 -23 140 -41 196 -85 270 -18 31 -45 100
-60 155 -21 76 -36 110 -67 149 -22 28 -55 86 -73 130 -19 45 -50 97 -73 122
-21 23 -51 68 -66 100 -15 31 -49 83 -75 114 -26 32 -62 82 -79 112 -17 30
-44 65 -61 78 -17 12 -47 45 -67 72 -19 27 -55 63 -79 80 -25 17 -56 48 -70
69 -14 21 -45 50 -69 66 -25 15 -59 45 -76 66 -17 21 -49 51 -72 66 -23 14
-65 47 -93 72 -28 25 -81 61 -119 80 -37 19 -87 52 -111 73 -26 22 -77 51
-121 68 -42 17 -101 48 -132 70 -37 26 -90 50 -156 70 -54 17 -138 51 -185 75
-63 32 -113 49 -195 65 -60 11 -165 39 -233 60 -182 58 -295 69 -660 68 -169
-1 -347 -6 -397 -10z m750 -249 c156 -13 246 -31 333 -68 65 -28 140 -48 266
-73 71 -13 95 -23 161 -65 28 -18 95 -46 150 -63 77 -23 112 -40 152 -73 28
-24 79 -54 113 -67 34 -14 85 -46 116 -73 31 -27 78 -60 104 -73 27 -14 62
-41 77 -60 15 -20 44 -45 63 -57 31 -18 60 -46 197 -180 78 -76 142 -148 171
-190 18 -26 47 -59 66 -73 18 -14 46 -49 61 -77 16 -29 46 -73 68 -98 21 -25
56 -81 77 -126 22 -45 54 -99 73 -122 37 -44 47 -65 76 -168 12 -39 35 -90 52
-114 43 -60 55 -91 80 -216 11 -60 39 -155 60 -211 54 -142 69 -265 76 -608 8
-410 -11 -604 -77 -768 -17 -43 -42 -133 -54 -200 -27 -138 -38 -170 -88 -243
-20 -29 -42 -81 -52 -119 -20 -81 -39 -120 -76 -160 -16 -16 -44 -64 -64 -105
-19 -41 -54 -97 -76 -124 -22 -26 -54 -75 -72 -108 -17 -33 -47 -72 -66 -86
-18 -14 -51 -52 -73 -84 -22 -31 -48 -62 -59 -68 -11 -6 -39 -34 -61 -63 -23
-29 -69 -70 -102 -92 -33 -22 -72 -48 -86 -57 -57 -39 -100 -8 -141 101 -19
53 -34 72 -102 131 -43 39 -84 70 -90 70 -6 0 -34 -13 -62 -29 -28 -16 -89
-41 -136 -56 -47 -15 -125 -47 -175 -71 -73 -36 -119 -50 -244 -74 -85 -17
-186 -42 -225 -55 -171 -59 -333 -74 -771 -74 -435 -1 -599 16 -791 79 -50 17
-149 42 -220 55 -105 20 -145 33 -216 69 -48 25 -126 56 -173 70 -47 14 -110
39 -139 56 -64 36 -70 34 -151 -34 -78 -66 -80 -69 -111 -150 -47 -121 -83
-133 -178 -64 -76 56 -259 236 -280 275 -8 17 -33 44 -54 61 -21 17 -51 54
-67 84 -15 29 -46 73 -68 96 -21 24 -57 82 -78 128 -21 46 -55 101 -74 123
-26 28 -46 68 -70 143 -20 56 -44 114 -54 128 -40 55 -61 112 -85 233 -14 69
-38 157 -55 195 -60 142 -81 324 -81 703 0 367 21 555 79 694 16 39 39 119 51
179 27 137 42 178 85 241 19 28 44 88 58 136 30 102 38 118 83 169 19 21 48
71 64 111 18 44 47 90 70 114 21 22 55 68 74 102 20 34 50 72 67 84 17 12 44
42 59 66 16 25 55 71 87 104 136 140 259 259 266 259 5 0 34 24 65 54 31 29
77 63 100 75 24 13 63 40 86 61 23 21 84 59 136 83 52 25 108 60 125 77 22 23
55 39 125 61 53 16 120 45 150 64 64 41 115 58 235 80 101 18 172 39 228 67
48 24 156 46 282 57 145 12 581 13 730 1z"></path>
<path d="M2041 5433 c-29 -12 -190 -183 -211 -225 -12 -23 -39 -63 -60 -88
-46 -56 -76 -114 -85 -165 -4 -22 -26 -96 -48 -165 -40 -123 -41 -128 -41
-275 l-1 -150 38 -92 c57 -142 51 -235 -25 -340 -37 -51 -50 -83 -68 -174 -6
-31 -27 -83 -47 -115 -52 -87 -59 -107 -83 -248 -11 -71 -36 -177 -55 -235
-52 -162 -67 -256 -72 -461 -6 -225 0 -254 61 -301 23 -18 55 -51 70 -72 15
-21 51 -55 79 -76 29 -21 66 -53 82 -71 17 -17 57 -47 90 -65 33 -19 84 -54
112 -79 29 -24 74 -52 100 -62 80 -29 126 -52 177 -89 27 -20 83 -46 130 -60
44 -14 107 -41 139 -60 71 -43 126 -59 292 -85 72 -12 175 -34 230 -50 119
-35 181 -46 335 -59 232 -20 319 -22 505 -12 231 14 296 24 448 67 65 19 178
44 250 55 175 26 201 34 277 79 36 21 104 50 151 65 53 16 113 43 155 70 37
25 97 56 134 70 38 14 89 45 118 69 29 25 78 59 109 77 32 18 83 55 113 84 30
28 71 61 91 73 19 12 41 33 49 46 7 14 37 48 66 76 74 71 78 88 71 314 -7 216
-17 288 -54 390 -33 91 -58 194 -77 324 -16 103 -29 140 -86 237 -16 28 -37
84 -46 125 -19 84 -42 136 -73 164 -27 24 -51 105 -51 170 0 28 13 97 29 153
63 220 65 317 8 498 -19 61 -40 135 -47 165 -16 68 -43 124 -83 170 -16 19
-43 63 -60 98 -18 39 -43 73 -65 90 -35 27 -61 51 -115 110 -19 22 -40 33 -71
37 -72 11 -102 -1 -148 -58 -22 -28 -57 -64 -77 -79 -21 -15 -50 -45 -65 -67
-15 -22 -45 -52 -67 -67 -22 -15 -55 -49 -75 -75 -19 -26 -54 -59 -79 -73 -24
-15 -51 -36 -59 -48 -24 -33 -68 -58 -106 -58 -19 0 -87 18 -150 40 -180 62
-283 73 -660 67 -344 -5 -369 -8 -557 -72 -141 -49 -183 -45 -236 21 -9 13
-34 33 -55 45 -38 23 -242 226 -242 240 0 5 -24 26 -54 48 -29 22 -64 56 -76
77 -13 20 -38 43 -56 50 -33 14 -96 17 -123 7z m848 -1653 c90 -15 125 -36
222 -137 103 -107 115 -137 113 -293 -2 -148 -14 -175 -127 -283 -129 -125
-144 -132 -292 -132 -159 1 -193 15 -307 133 -107 110 -123 147 -123 287 0
151 13 183 114 288 94 97 133 123 213 136 74 12 114 12 187 1z m1480 -21 c28
-12 80 -54 133 -107 108 -107 123 -141 123 -287 0 -152 -12 -183 -117 -291
-120 -124 -154 -139 -308 -139 -147 0 -182 15 -295 126 -112 109 -129 147
-129 294 -1 157 12 189 122 297 48 47 102 93 120 102 78 39 268 42 351 5z
m-603 -1122 c13 -15 24 -38 24 -51 0 -27 -35 -68 -79 -90 -17 -9 -42 -35 -56
-57 -37 -57 -78 -79 -150 -79 -76 0 -121 22 -157 77 -16 22 -48 53 -73 67 -48
29 -65 51 -65 89 0 23 30 59 60 70 8 3 118 5 243 4 l229 -2 24 -28z"></path>
</g>
</svg>